# File created by Blade
# Date/Time:  Tue Jan 27 20:02:46 2015
#---------------------------------------------------------
:version 1.10
:name HOM
:units
  mass 1.0
  length 1.000000
  angle deg
:documentation
     Acclaim Skeleton File
:root
   axis xyz
   order TX TY TZ RX RY RZ
   position 0.000000 0.000000 0.000000
   orientation 0 0 0
:bonedata
   begin
      id 1
      name Spine_dum
      direction 0.000000 1.000000 0.000000
      length 6.116652
      axis 0.0 0.0 0.0 xyz
   end
   begin
      id 2
      name LeftUpLeg_dum
      direction 1.000000 0.000000 0.000000
      length 4.711765
      axis 0.0 0.0 0.0 xyz
   end
   begin
      id 3
      name RightUpLeg_dum
      direction -1.000000 0.000000 0.000000
      length 4.711765
      axis 0.0 0.0 0.0 xyz
   end
   begin
      id 4
      name Spine
      direction 0.000000 1.000000 0.000000
      length 0.000000
      axis 0.0 0.0 0.0 xyz
      dof rx ry rz
   end
   begin
      id 5
      name Spine_dum1
      direction 0.000000 1.000000 0.000000
      length 15.225563
      axis 0.0 0.0 0.0 xyz
   end
   begin
      id 6
      name Spine_dum2
      direction 0.000000 1.000000 0.000000
      length 8.977654
      axis 0.0 0.0 0.0 xyz
   end
   begin
      id 7
      name Spine_dum3
      direction 0.000000 1.000000 0.000000
      length 8.977654
      axis 0.0 0.0 0.0 xyz
   end
   begin
      id 8
      name Head
      direction 0.000000 1.000000 0.000000
      length 4.527550
      axis 0.0 0.0 0.0 xyz
      dof rx ry rz
   end
   begin
      id 9
      name LeftShoulder
      direction 1.000000 0.000000 0.000000
      length 7.110130
      axis 0.0 0.0 -90.0 xyz
      dof rx ry rz
   end
   begin
      id 10
      name LeftArm
      direction 1.000000 0.000000 0.000000
      length 10.398341
      axis 0.0 0.0 -90.0 xyz
      dof rx ry rz
   end
   begin
      id 11
      name LeftForeArm
      direction 1.000000 0.000000 0.000000
      length 8.888997
      axis 0.0 0.0 -90.0 xyz
      dof ry rz rx
   end
   begin
      id 12
      name LeftHand
      direction 0.000000 0.000000 0.000000
      length 0.000000
      axis 0.0 0.0 -90.0 xyz
      dof rx ry rz
   end
   begin
      id 13
      name LeftHand_dum1
      direction 0.000000 0.000000 0.000000
      length 0.000000
      axis 0.0 0.0 -90.0 xyz
   end
   begin
      id 14
      name LeftHand_dum2
      direction 1.000000 0.000000 0.000000
      length 3.937000
      axis 0.0 0.0 -90.0 xyz
   end
   begin
      id 15
      name LeftHandThumb1
      direction 0.000000 0.000000 1.000000
      length 3.937000
      axis 0.0 0.0 -90.0 xyz
      dof rx rz ry
   end
   begin
      id 16
      name RightShoulder
      direction -1.000000 0.000000 0.000000
      length 7.110130
      axis 0.0 0.0 90.0 xyz
      dof rx ry rz
   end
   begin
      id 17
      name RightArm
      direction -1.000000 0.000000 0.000000
      length 10.398341
      axis 0.0 0.0 90.0 xyz
      dof rx ry rz
   end
   begin
      id 18
      name RightForeArm
      direction -1.000000 0.000000 0.000000
      length 8.888997
      axis 0.0 0.0 90.0 xyz
      dof ry rz rx
   end
   begin
      id 19
      name RightHand
      direction 0.000000 0.000000 0.000000
      length 0.000000
      axis 0.0 0.0 90.0 xyz
      dof rx ry rz
   end
   begin
      id 20
      name RightHand_dum1
      direction 0.000000 0.000000 0.000000
      length 0.000000
      axis 0.0 0.0 90.0 xyz
   end
   begin
      id 21
      name RightHand_dum2
      direction -1.000000 0.000000 0.000000
      length 3.937000
      axis 0.0 0.0 90.0 xyz
   end
   begin
      id 22
      name RightHandThumb1
      direction 0.000000 0.000000 1.000000
      length 3.937000
      axis 0.0 0.0 90.0 xyz
      dof rx rz ry
   end
   begin
      id 23
      name LeftUpLeg
      direction 0.000000 -1.000000 0.000000
      length 15.510451
      axis 0.0 0.0 0.0 xyz
      dof rx ry rz
   end
   begin
      id 24
      name LeftLeg
      direction 0.000000 -1.000000 0.000000
      length 14.858061
      axis 0.0 0.0 0.0 xyz
      dof rx ry rz
   end
   begin
      id 25
      name LeftFoot
      direction 0.000000 -0.258819 0.965926
      length 5.128852
      axis 15.0 0.0 0.0 xyz
      dof rx ry rz
   end
   begin
      id 26
      name LeftToeBase
      direction 0.000000 0.000000 1.000000
      length 2.952750
      axis 0.0 0.0 0.0 xyz
      dof rx ry rz
   end
   begin
      id 27
      name RightUpLeg
      direction 0.000000 -1.000000 0.000000
      length 15.510451
      axis 0.0 0.0 0.0 xyz
      dof rx ry rz
   end
   begin
      id 28
      name RightLeg
      direction 0.000000 -1.000000 0.000000
      length 14.858061
      axis 0.0 0.0 0.0 xyz
      dof rx ry rz
   end
   begin
      id 29
      name RightFoot
      direction 0.000000 -0.258819 0.965926
      length 5.128852
      axis 15.0 0.0 0.0 xyz
      dof rx ry rz
   end
   begin
      id 30
      name RightToeBase
      direction 0.000000 0.000000 1.000000
      length 2.952750
      axis 0.0 0.0 0.0 xyz
      dof rx ry rz
   end
:hierarchy
   begin
      root Spine_dum LeftUpLeg_dum RightUpLeg_dum
      Spine_dum Spine
      LeftUpLeg_dum LeftUpLeg
      RightUpLeg_dum RightUpLeg
      Spine Spine_dum1 Spine_dum2 Spine_dum3
      Spine_dum1 Head
      Spine_dum2 LeftShoulder
      Spine_dum3 RightShoulder
      LeftShoulder LeftArm
      LeftArm LeftForeArm
      LeftForeArm LeftHand
      LeftHand LeftHand_dum1 LeftHand_dum2
      LeftHand_dum1 LeftHandThumb1
      RightShoulder RightArm
      RightArm RightForeArm
      RightForeArm RightHand
      RightHand RightHand_dum1 RightHand_dum2
      RightHand_dum1 RightHandThumb1
      LeftUpLeg LeftLeg
      LeftLeg LeftFoot
      LeftFoot LeftToeBase
      RightUpLeg RightLeg
      RightLeg RightFoot
      RightFoot RightToeBase
   end

# File created by Blade
# Date/Time:  Tue Jan 27 20:02:37 2015
# Frame Rate: 120.000 fps
#------------------------------------------------------
:FULLY-SPECIFIED
:DEGREES
1056
root 7.584976 32.180633 3.619868 -6.015583 -2.331258 -3.235151
Spine 6.664716 10.662978 2.999416
Head 11.954437 -10.463725 -0.049449
LeftShoulder -13.895728 -1.032905 27.863206
LeftArm -6.103586 -7.497837 -83.920555
LeftForeArm -7.444238 -0.000000 118.575985
LeftHand 11.163616 0.000000 -2.973468
LeftHandThumb1 -26.253704 0.000000 33.147579
RightShoulder -18.192702 -16.557718 -23.175838
RightArm 11.882706 -28.513867 90.026946
RightForeArm -13.087953 -0.000000 15.992357
RightHand 17.092396 -0.000000 6.558535
RightHandThumb1 -24.326973 -0.000000 -32.862282
LeftUpLeg 10.795095 0.511798 -6.822665
LeftLeg -0.930500 -0.000000 0.000000
LeftFoot -16.836667 20.492284 -14.921549
LeftToeBase 18.309556 -0.000000 -0.000000
RightUpLeg -50.470820 4.005080 10.217036
RightLeg 86.816488 -0.000000 -0.000000
RightFoot 12.393456 -34.218550 16.211710
RightToeBase 14.473684 -0.000000 -0.000000
1057
root 7.577233 32.178322 3.640974 -6.024587 -2.222435 -3.211117
Spine 6.645404 10.578550 2.974072
Head 11.941141 -10.477389 -0.053886
LeftShoulder -13.907339 -0.979277 27.868346
LeftArm -6.130402 -7.483497 -83.892577
LeftForeArm -7.453374 0.000000 118.607982
LeftHand 11.209920 -0.000000 -3.189294
LeftHandThumb1 -26.253704 0.000000 33.147579
RightShoulder -18.231195 -16.595072 -23.147748
RightArm 11.909272 -28.529079 90.042580
RightForeArm -13.198488 -0.000000 15.958180
RightHand 17.091438 -0.000000 6.613291
RightHandThumb1 -24.326973 -0.000000 -32.862282
LeftUpLeg 10.850409 0.439757 -6.842481
LeftLeg -0.955394 -0.000000 0.000000
LeftFoot -16.838082 20.479901 -14.909740
LeftToeBase 18.299908 -0.000000 -0.000000
RightUpLeg -50.364981 4.095910 10.177841
RightLeg 86.987766 -0.000000 -0.000000
RightFoot 12.414963 -34.162761 16.146385
RightToeBase 14.672489 -0.000000 -0.000000
1058
root 7.570627 32.175215 3.661260 -6.027485 -2.115086 -3.177346
Spine 6.615567 10.512430 2.936574
Head 11.946635 -10.508398 -0.055957
LeftShoulder -13.922715 -0.921875 27.888219
LeftArm -6.133032 -7.449954 -83.903231
LeftForeArm -7.503647 0.000000 118.622886
LeftHand 11.196286 -0.000000 -3.092080
LeftHandThumb1 -26.253704 0.000000 33.147579
RightShoulder -18.265125 -16.636197 -23.114584
RightArm 11.915583 -28.536650 90.053044
RightForeArm -13.200078 -0.000000 15.954146
RightHand 17.049656 -0.000000 6.555685
RightHandThumb1 -24.326973 -0.000000 -32.862282
LeftUpLeg 10.909363 0.342285 -6.876214
LeftLeg -1.003114 -0.000000 0.000000
LeftFoot -16.850255 20.474790 -14.953090
LeftToeBase 18.268745 -0.000000 -0.000000
RightUpLeg -50.274948 4.174832 10.129599
RightLeg 87.164187 -0.000000 -0.000000
RightFoot 12.461685 -34.113198 16.217656
RightToeBase 14.230729 -0.000000 -0.000000
1059
root 7.564216 32.171952 3.681851 -6.037478 -2.026974 -3.146912
Spine 6.586857 10.477497 2.900045
Head 11.974353 -10.523843 -0.020079
LeftShoulder -13.915015 -0.883643 27.924388
LeftArm -6.160519 -7.424709 -83.937996
LeftForeArm -7.556469 0.000000 118.653757
LeftHand 11.180436 -0.000000 -3.090682
LeftHandThumb1 -26.253704 0.000000 33.147579
RightShoulder -18.302429 -16.354722 -23.188531
RightArm 11.554669 -28.577037 90.226169
RightForeArm -13.083971 -0.000000 15.930509
RightHand 17.002318 -0.000000 6.560876
RightHandThumb1 -24.326973 -0.000000 -32.862282
LeftUpLeg 10.976915 0.228301 -6.914758
LeftLeg -1.046661 -0.000000 0.000000
LeftFoot -16.857834 20.529674 -14.928720
LeftToeBase 18.252080 -0.000000 -0.000000
RightUpLeg -50.188546 4.232433 10.103756
RightLeg 87.345087 -0.000000 -0.000000
RightFoot 12.561989 -34.062292 16.077873
RightToeBase 14.591709 -0.000000 -0.000000
1060
root 7.556155 32.170355 3.703253 -6.050460 -1.927625 -3.133258
Spine 6.562514 10.421159 2.896200
Head 12.009819 -10.548000 -0.039493
LeftShoulder -13.922050 -0.884569 27.927171
LeftArm -6.218670 -7.413271 -83.936705
LeftForeArm -7.553234 -0.000000 118.672700
LeftHand 11.167730 0.000000 -3.196198
LeftHandThumb1 -26.253704 0.000000 33.147579
RightShoulder -18.332613 -16.371267 -23.176307
RightArm 11.505585 -28.541129 90.266630
RightForeArm -13.018455 0.000000 15.932872
RightHand 17.015374 -0.000000 6.463619
RightHandThumb1 -24.326973 -0.000000 -32.862282
LeftUpLeg 11.052860 0.143963 -6.923668
LeftLeg -1.107576 -0.000000 0.000000
LeftFoot -16.859817 20.587348 -14.867431
LeftToeBase 18.420206 -0.000000 -0.000000
RightUpLeg -50.092763 4.274129 10.091386
RightLeg 87.499481 -0.000000 -0.000000
RightFoot 12.667121 -34.005107 16.116345
RightToeBase 14.544667 -0.000000 -0.000000
1061
root 7.549348 32.167956 3.723861 -6.060426 -1.832460 -3.097942
Spine 6.530449 10.372934 2.863330
Head 12.056065 -10.591578 -0.044325
LeftShoulder -13.921574 -0.865403 27.939252
LeftArm -6.253386 -7.411159 -83.946961
LeftForeArm -7.571106 -0.000000 118.684494
LeftHand 11.170240 -0.000000 -3.311620
LeftHandThumb1 -26.253704 0.000000 33.147579
RightShoulder -18.357814 -16.386893 -23.165386
RightArm 11.457940 -28.539132 90.305224
RightForeArm -12.971221 -0.000000 15.928450
RightHand 17.061345 -0.000000 6.351901
RightHandThumb1 -24.326973 -0.000000 -32.862282
LeftUpLeg 11.120709 0.089648 -6.950730
LeftLeg -1.153266 -0.000000 0.000000
LeftFoot -16.853203 20.547457 -14.886719
LeftToeBase 18.351409 -0.000000 -0.000000
RightUpLeg -50.013140 4.273567 10.072330
RightLeg 87.663405 -0.000000 -0.000000
RightFoot 12.842979 -33.938943 15.964091
RightToeBase 14.366259 -0.000000 -0.000000
1062
root 7.542616 32.165906 3.743726 -6.057919 -1.739713 -3.063978
Spine 6.485537 10.346173 2.833723
Head 12.098041 -10.654869 -0.057796
LeftShoulder -13.925650 -0.850597 27.947384
LeftArm -6.266779 -7.380955 -83.955502
LeftForeArm -7.574217 -0.000000 118.671021
LeftHand 11.183580 -0.000000 -3.365766
LeftHandThumb1 -26.253704 0.000000 33.147579
RightShoulder -18.389570 -16.479859 -23.125600
RightArm 11.458921 -28.492105 90.322014
RightForeArm -12.981588 -0.000000 15.963618
RightHand 17.051885 -0.000000 6.265451
RightHandThumb1 -24.326973 -0.000000 -32.862282
LeftUpLeg 11.170628 0.060968 -6.974292
LeftLeg -1.194859 -0.000000 0.000000
LeftFoot -16.836773 20.538205 -14.821904
LeftToeBase 18.477243 -0.000000 -0.000000
RightUpLeg -49.956837 4.266955 10.053141
RightLeg 87.816348 -0.000000 -0.000000
RightFoot 12.878286 -33.883646 16.026673
RightToeBase 14.789222 -0.000000 -0.000000
1063
root 7.537044 32.163592 3.761874 -6.057021 -1.640496 -3.027761
Spine 6.448719 10.316524 2.803966
Head 12.130687 -10.696759 -0.060394
LeftShoulder -13.924221 -0.825156 27.939088
LeftArm -6.257793 -7.372784 -83.972426
LeftForeArm -7.556071 -0.000000 118.669503
LeftHand 11.194384 -0.000000 -3.532341
LeftHandThumb1 -26.253704 0.000000 33.147579
RightShoulder -18.417330 -16.498315 -23.107118
RightArm 11.388453 -28.416979 90.367905
RightForeArm -13.024540 -0.000000 15.979913
RightHand 17.069865 -0.000000 6.196689
RightHandThumb1 -24.326973 -0.000000 -32.862282
LeftUpLeg 11.209753 0.036218 -7.001229
LeftLeg -1.217557 -0.000000 0.000000
LeftFoot -16.827485 20.494956 -14.824466
LeftToeBase 18.488349 -0.000000 -0.000000
RightUpLeg -49.905443 4.256809 10.028445
RightLeg 87.955876 -0.000000 -0.000000
RightFoot 12.992727 -33.825496 16.046679
RightToeBase 14.619675 -0.000000 -0.000000
1064
root 7.530335 32.161313 3.778692 -6.063151 -1.537415 -2.994997
Spine 6.422634 10.260685 2.773565
Head 12.173199 -10.697846 -0.049608
LeftShoulder -13.925272 -0.838886 27.941384
LeftArm -6.290634 -7.404240 -83.984974
LeftForeArm -7.572526 -0.000000 118.657531
LeftHand 11.223236 -0.000000 -3.690768
LeftHandThumb1 -26.253704 0.000000 33.147579
RightShoulder -18.425860 -16.491331 -23.092305
RightArm 11.308231 -28.334195 90.408849
RightForeArm -13.043400 0.000000 16.008851
RightHand 17.068421 -0.000000 6.355621
RightHandThumb1 -24.326973 -0.000000 -32.862282
LeftUpLeg 11.248015 0.004389 -7.024227
LeftLeg -1.229135 -0.000000 0.000000
LeftFoot -16.808371 20.466972 -14.745198
LeftToeBase 18.533074 -0.000000 -0.000000
RightUpLeg -49.856397 4.219304 10.011128
RightLeg 88.083263 -0.000000 -0.000000
RightFoot 13.063517 -33.791880 16.017905
RightToeBase 14.367818 -0.000000 -0.000000
